<svg xmlns="http://www.w3.org/2000/svg" viewBox="0 0 165.59 84.99"><defs><style>.cls-1{fill:#462d81;}.cls-2,.cls-3,.cls-4{fill:none;stroke:#462d81;stroke-miterlimit:10;stroke-width:2px;}.cls-3{stroke-dasharray:1.99 1.99;}.cls-4{stroke-dasharray:1.98 1.98;}.cls-5{fill:#fff;}.cls-6,.cls-7{fill:#eec627;}.cls-7{font-size:4.34px;font-family:Helvetica;}</style></defs><g id="Layer_2" data-name="Layer 2"><g id="Layer_1-2" data-name="Layer 1"><rect class="cls-1" x="4.42" y="3.56" width="156.84" height="77.13"/><polyline class="cls-2" points="164.59 82.99 164.59 83.99 163.59 83.99"/><line class="cls-3" x1="161.6" y1="83.99" x2="3" y2="83.99"/><polyline class="cls-2" points="2 83.99 1 83.99 1 82.99"/><line class="cls-4" x1="1" y1="81.01" x2="1" y2="2.99"/><polyline class="cls-2" points="1 2 1 1 2 1"/><line class="cls-3" x1="3.99" y1="1" x2="162.59" y2="1"/><polyline class="cls-2" points="163.59 1 164.59 1 164.59 2"/><line class="cls-4" x1="164.59" y1="3.98" x2="164.59" y2="82"/><path class="cls-5" d="M53.12,17.31a5.78,5.78,0,0,0-4.58-1.7h-5.8V39.37h3.94V29.7h1.86A5.74,5.74,0,0,0,53.12,28Zm-2.65,6.76c0,1.69-.68,2.24-1.93,2.24H46.68V19h1.86c1.25,0,1.93.54,1.93,2.24Z"/><path class="cls-5" d="M63.61,33.9V32.56h.79V24.81a7.14,7.14,0,0,1-.72-3.32,7,7,0,0,1,.72-3.33V16.05H60.84V34.23c0,1.68-.7,2.28-1.88,2.28s-1.87-.6-1.87-2.28V16.05H53.4V34c0,3.76,1.87,5.91,5.5,5.91,2.66,0,4.39-1.17,5.11-3.28a8.14,8.14,0,0,1-.4-2.69"/><path class="cls-5" d="M73.67,29.27A16.18,16.18,0,0,0,71,26.43c-2.41-2.12-3.18-3.36-3.18-5.07s.67-2.24,1.84-2.24,1.85.63,1.85,2.31v1.21h2.16V17.32a5.1,5.1,0,0,0-4-1.56c-3.59,0-5.5,2.15-5.5,5.84,0,2.68,1,4.59,4.09,7.31,2.41,2.11,3.15,3.35,3.15,5.3,0,1.74-.74,2.35-1.91,2.35s-1.91-.61-1.91-2.28V32.67H64.06V34c0,3.75,1.81,5.9,5.43,5.9a5.37,5.37,0,0,0,4.18-1.59Z"/><polygon class="cls-5" points="74.19 15.79 77.88 15.79 77.88 25.35 81.83 25.35 81.83 15.79 85.53 15.79 85.53 39.27 81.83 39.27 81.83 28.7 77.88 28.7 77.88 39.27 74.19 39.27 74.19 15.79"/><rect class="cls-5" x="71.56" y="46.05" width="13.87" height="1.25" transform="translate(-10.84 65.62) rotate(-42.71)"/><rect class="cls-5" x="85.83" y="32.7" width="14.25" height="1.25" transform="translate(2.05 71.89) rotate(-42.71)"/><polygon class="cls-6" points="116.7 41.07 120.77 41.07 120.77 60.94 127.47 60.94 127.47 64.25 116.7 64.25 116.7 41.07"/><path class="cls-6" d="M95.61,41.66a5.16,5.16,0,0,0-4.3-1.75H85.88V64.46h3.69v-10h1.74a5.16,5.16,0,0,0,4.3-1.76Zm-2.49,7c0,1.76-.64,2.32-1.81,2.32H89.57V43.41h1.74c1.17,0,1.81.57,1.81,2.32Z"/><path class="cls-6" d="M95.88,59.11V41.2h3.69V59.38c0,1.68.7,2.28,1.88,2.28s1.88-.6,1.88-2.28V41.2h3.55V59.11c0,3.76-1.88,5.91-5.5,5.91s-5.5-2.15-5.5-5.91"/><polygon class="cls-6" points="108.47 40.98 111.62 40.98 111.62 60.84 114.85 60.84 114.76 64.16 108.19 64.16 108.47 40.98"/><text class="cls-7" transform="translate(85.44 69.53)">Branding X Marketing</text></g></g></svg>