<svg xmlns="http://www.w3.org/2000/svg" viewBox="0 0 157.84 78.13"><defs><style>.cls-1,.cls-2,.cls-3{fill:none;stroke:#eec627;stroke-miterlimit:10;}.cls-2{stroke-dasharray:2.8 2.8;}.cls-3{stroke-dasharray:2.75 2.75;}.cls-4{fill:#fff;}.cls-5,.cls-6{fill:#eec627;}.cls-6{font-size:4.34px;font-family:Helvetica;}</style></defs><g id="Layer_2" data-name="Layer 2"><g id="Layer_1-2" data-name="Layer 1"><polyline class="cls-1" points="157.34 76.21 157.34 77.63 155.92 77.63"/><line class="cls-2" x1="153.12" y1="77.63" x2="3.32" y2="77.63"/><polyline class="cls-1" points="1.92 77.63 0.5 77.63 0.5 76.21"/><line class="cls-3" x1="0.5" y1="73.46" x2="0.5" y2="3.29"/><polyline class="cls-1" points="0.5 1.92 0.5 0.5 1.92 0.5"/><line class="cls-2" x1="4.72" y1="0.5" x2="154.52" y2="0.5"/><polyline class="cls-1" points="155.92 0.5 157.34 0.5 157.34 1.92"/><line class="cls-3" x1="157.34" y1="4.67" x2="157.34" y2="74.83"/><path class="cls-4" d="M49.2,14.25a5.77,5.77,0,0,0-4.58-1.69h-5.8V36.32h3.94V26.64h1.86A5.77,5.77,0,0,0,49.2,25ZM46.55,21c0,1.7-.68,2.24-1.93,2.24H42.76V16h1.86c1.25,0,1.93.54,1.93,2.24Z"/><path class="cls-4" d="M59.69,30.84V29.5h.79V21.76a7.21,7.21,0,0,1-.72-3.33,7,7,0,0,1,.72-3.33V13H56.92V31.18c0,1.67-.7,2.28-1.87,2.28s-1.88-.61-1.88-2.28V13H49.48V30.91c0,3.75,1.88,5.9,5.5,5.9,2.67,0,4.39-1.16,5.11-3.28a8.14,8.14,0,0,1-.4-2.69"/><path class="cls-4" d="M69.75,26.21a16.15,16.15,0,0,0-2.67-2.84C64.67,21.26,63.9,20,63.9,18.31s.67-2.25,1.84-2.25,1.85.64,1.85,2.31v1.21h2.16V14.26a5.12,5.12,0,0,0-4-1.55c-3.59,0-5.5,2.14-5.5,5.83,0,2.68,1,4.6,4.09,7.31,2.41,2.12,3.15,3.36,3.15,5.3,0,1.75-.74,2.35-1.91,2.35s-1.91-.6-1.91-2.28V29.61H60.14V31c0,3.76,1.81,5.9,5.43,5.9a5.4,5.4,0,0,0,4.18-1.58Z"/><polygon class="cls-4" points="70.27 12.73 73.96 12.73 73.96 22.29 77.92 22.29 77.92 12.73 81.61 12.73 81.61 36.21 77.92 36.21 77.92 25.64 73.96 25.64 73.96 36.21 70.27 36.21 70.27 12.73"/><rect class="cls-4" x="67.65" y="42.99" width="13.87" height="1.25" transform="translate(-9.8 62.15) rotate(-42.71)"/><rect class="cls-4" x="81.91" y="29.65" width="14.25" height="1.25" transform="translate(3.08 68.42) rotate(-42.71)"/><polygon class="cls-5" points="112.78 38.01 116.86 38.01 116.86 57.88 123.55 57.88 123.55 61.19 112.78 61.19 112.78 38.01"/><path class="cls-5" d="M91.69,38.61a5.13,5.13,0,0,0-4.3-1.76H82V61.41h3.69v-10h1.74a5.13,5.13,0,0,0,4.3-1.76Zm-2.49,7c0,1.75-.63,2.31-1.81,2.31H85.65V40.36h1.74c1.18,0,1.81.56,1.81,2.31Z"/><path class="cls-5" d="M92,56.06V38.15h3.69V56.33c0,1.67.71,2.28,1.88,2.28s1.88-.61,1.88-2.28V38.15H103V56.06c0,3.75-1.87,5.9-5.5,5.9S92,59.81,92,56.06"/><polygon class="cls-5" points="104.55 37.92 107.7 37.92 107.7 57.79 110.93 57.79 110.84 61.1 104.27 61.1 104.55 37.92"/><text class="cls-6" transform="translate(81.52 66.47)">Branding X Marketing</text></g></g></svg>